<?xml version="1.0" encoding="UTF-8" standalone="no"?>
<!DOCTYPE svg PUBLIC "-//W3C//DTD SVG 1.1//EN" "http://www.w3.org/Graphics/SVG/1.1/DTD/svg11.dtd">
<!-- Generiert durch Microsoft Visio, SVG Export helloworld.svg Zeichenblatt-1 -->
<svg xmlns="http://www.w3.org/2000/svg" xmlns:xlink="http://www.w3.org/1999/xlink" xmlns:ev="http://www.w3.org/2001/xml-events"
		xmlns:v="http://schemas.microsoft.com/visio/2003/SVGExtensions/" width="3.94791in" height="3.94791in"
		viewBox="0 0 284.25 284.25" xml:space="preserve" color-interpolation-filters="sRGB" class="st2">
	<v:documentProperties v:langID="1031"/>

	<style type="text/css">
	<![CDATA[
		.st1 {fill:#31859b;stroke:none;stroke-linecap:round;stroke-linejoin:round;stroke-width:0.749998}
		.st2 {fill:none;fill-rule:evenodd;font-size:12px;overflow:visible;stroke-linecap:square;stroke-miterlimit:3}
	]]>
	</style>

	<g v:mID="0" v:index="1" v:groupContext="foregroundPage">
		<title>Zeichenblatt-1</title>
		<v:pageProperties v:drawingScale="1" v:pageScale="1" v:drawingUnits="19" v:shadowOffsetX="8.99997"
				v:shadowOffsetY="-8.99997"/>
		<g id="shape1-1" v:mID="1" v:groupContext="shape" transform="translate(18.75,-17.4426)">
			<title>Tabelle.100</title>
			<path d="M135.14 35.95 A124.498 123.494 -90 0 0 128.72 35.49 L128.72 93.31 A112.218 59.016 -0 0 0 176.55 86.51 A125.762
						 64.2095 -90 0 0 135.14 35.95 ZM179.25 94.53 A124.568 67.1162 0 0 1 128.72 101.4 L128.72 158.9 A124.568 58.7267
						 -0 0 0 188.45 150.5 A125.762 64.2095 -90 0 0 179.25 94.53 ZM188.63 159.46 A137.454 67.1162 0 0 1 128.72
						 167.28 L128.72 221.98 A125.031 57.678 -0 0 0 182.08 215.27 A125.762 64.2095 -90 0 0 188.63 159.46 ZM179.16
						 225.68 A137.454 67.1162 0 0 1 128.72 231.41 L128.72 284.25 A124.498 123.494 -90 0 0 135.71 283.74 A125.762
						 64.2095 -90 0 0 179.16 225.68 ZM113.91 284.01 A124.498 123.494 -90 0 0 117.99 284.25 L117.99 231.41 A137.454
						 67.1162 0 0 1 69.83 226.17 A125.762 64.2095 -90 0 0 113.91 284.01 ZM66.89 215.82 A125.031 57.678 -0 0 0
						 117.99 221.98 L117.99 167.26 A137.454 67.1162 0 0 1 60.22 159.63 A125.762 64.2095 -90 0 0 66.89 215.82 ZM60.38
						 150.67 A124.568 58.7267 -0 0 0 117.99 158.86 L117.99 101.37 A124.568 67.1162 0 0 1 69.54 94.68 A125.762
						 64.2095 -90 0 0 60.38 150.67 ZM72.24 86.68 A112.218 59.016 -0 0 0 117.99 93.26 L117.99 35.49 A124.498 123.494
						 -90 0 0 114.49 35.71 A125.762 64.2095 -90 0 0 72.24 86.68 ZM86.03 41.21 A124.498 123.494 -90 0 0 36.6 71.28
						 A112.218 59.016 -0 0 0 63.19 83.9 A139.602 73.0226 90 0 1 86.03 41.21 ZM60.62 92.08 A124.568 67.1162 0 0
						 1 30.04 78.33 A124.498 123.494 -90 0 0 6.51 119.56 A124.568 58.7267 -0 0 0 51.68 147.98 A139.602 73.0226
						 90 0 1 60.62 92.08 ZM51.42 157.16 A137.454 67.1162 0 0 1 3.01 131.95 A124.498 123.494 -90 0 0 0.89 176 A125.031
						 57.678 -0 0 0 56.93 213.22 A139.602 73.0226 90 0 1 51.42 157.16 ZM59.47 223.78 A137.454 67.1162 0 0 1 6.28
						 199.53 A124.498 123.494 -90 0 0 85.86 278.5 A139.602 73.0226 90 0 1 59.47 223.78 ZM163.8 277.5 A124.498
						 123.494 -90 0 0 240.42 199.53 A137.454 67.1162 0 0 1 189.52 223.18 A139.602 73.0226 90 0 1 163.8 277.5 ZM192.06
						 212.53 A125.031 57.678 -0 0 0 245.8 176 A124.498 123.494 -90 0 0 243.95 133.09 A137.454 67.1162 0 0 1 197.43
						 156.98 A139.602 73.0226 90 0 1 192.06 212.53 ZM197.17 147.78 A124.568 58.7267 -0 0 0 240.65 120.96 A124.498
						 123.494 -90 0 0 217.2 78.95 A124.568 67.1162 0 0 1 188.18 91.9 A139.602 73.0226 90 0 1 197.17 147.78 ZM185.6
						 83.72 A112.218 59.016 -0 0 0 210.71 71.88 A124.498 123.494 -90 0 0 163.64 42.2 A139.602 73.0226 90 0 1 185.6
						 83.72 Z" class="st1"/>
		</g>
	</g>
</svg>
